<svg xmlns="http://www.w3.org/2000/svg" width="299.988" height="487.801" viewBox="0 0 468 761">
  <defs>
    <style>
      .cls-1 {
        fill: #f44336;
      }

      .cls-1, .cls-2, .cls-3, .cls-4 {
        fill-rule: evenodd;
      }

      .cls-1, .cls-2, .cls-4 {
        opacity: 0.7;
      }

      .cls-2 {
        fill: #2196f3;
      }

      .cls-4 {
        fill: #424242;
      }
    </style>
  </defs>
  <path id="Polygone_1" data-name="Polygone 1" class="cls-1" d="M466.934,354.653l-149.171,85.1L167.709,353.124l-0.883-171.738L316,96.282l150.054,86.634Z"/>
  <path id="Polygone_1-2" data-name="Polygone 1" class="cls-2" d="M301.434,259.859l-149.171,85.1L2.209,258.33,1.326,86.592,150.5,1.488,300.551,88.121Z"/>
  <path id="NOVA" class="cls-3" d="M134.818,632.626L110.6,589.951v22.46l24.219,42.579h11.914V583.017H134.818v49.609ZM106.6,654.99V583.017H94.681V654.99H106.6Zm58.643-20.9a33.805,33.805,0,0,0,5.859,11.377,25.779,25.779,0,0,0,8.936,7.129,29.957,29.957,0,0,0,11.132,2.881V645.81a14.726,14.726,0,0,1-6.152-2,15.671,15.671,0,0,1-5.127-5.029,27.134,27.134,0,0,1-3.467-8.252,51.967,51.967,0,0,1,0-23.682,26.569,26.569,0,0,1,3.418-8.2,15.073,15.073,0,0,1,5.078-4.883,16.477,16.477,0,0,1,6.25-2.051v-9.765a29.7,29.7,0,0,0-11.181,2.881,25.949,25.949,0,0,0-8.887,7.128,33.89,33.89,0,0,0-5.859,11.329A57.553,57.553,0,0,0,165.238,634.091Zm29.834-42.48a14.741,14.741,0,0,1,6.152,2,15.85,15.85,0,0,1,5.127,4.98,26.527,26.527,0,0,1,3.467,8.2,52.18,52.18,0,0,1,0,23.731,27.342,27.342,0,0,1-3.418,8.2,15.385,15.385,0,0,1-5.078,4.98,15.985,15.985,0,0,1-6.25,2.1v9.668A29.319,29.319,0,0,0,206.2,652.6a26.1,26.1,0,0,0,8.838-7.129,34.518,34.518,0,0,0,5.909-11.377,56.315,56.315,0,0,0,0-30.81,34.614,34.614,0,0,0-5.909-11.329,26.507,26.507,0,0,0-8.886-7.177,27.783,27.783,0,0,0-11.084-2.832v9.668Zm63.769,63.769h6.152V639.462l-15.136-56.445H236.478ZM269,636.337V655.38h5.079l23.437-72.363H284.232Zm77.149-53.222H334.525l-25.2,71.875h12.207l18.848-53.907,18.652,53.907h12.11Zm-12.4,49.023-2.734,7.91h18.652l-2.832-7.91H333.743Z"/>
  <path id="Spotify" class="cls-3" d="M162.611,716.425q0.243-.439.586-1.1t0.732-1.416q0.39-.756.684-1.391a10.051,10.051,0,0,0-3.589-1.294,27.275,27.275,0,0,0-4.37-.464v4.932a12.059,12.059,0,0,1,2.49.049,9.1,9.1,0,0,1,1.611.366,3.9,3.9,0,0,1,.977.464,2.816,2.816,0,0,0,.586.341A4.351,4.351,0,0,0,162.611,716.425Zm-16.285,8.252a10.588,10.588,0,0,0,2.173,2.832,15.312,15.312,0,0,0,2.93,2.124q1.611,0.9,3.223,1.685v-5.567a9.727,9.727,0,0,1-2.588-2.05,4.5,4.5,0,0,1-1.026-3.077,4.446,4.446,0,0,1,1.026-2.71,5.4,5.4,0,0,1,2.588-1.879v-5.127a12.585,12.585,0,0,0-3.54,1,9.342,9.342,0,0,0-2.93,2.05,9.953,9.953,0,0,0-1.978,3,9.715,9.715,0,0,0-.732,3.858A8.138,8.138,0,0,0,146.326,724.677Zm-1.1,20.264a7.729,7.729,0,0,0,1.977,1.245,13.214,13.214,0,0,0,2.417.806,19.73,19.73,0,0,0,2.515.415q1.245,0.12,2.417.122h0.1V742.89h-0.147a12.3,12.3,0,0,1-2.1-.195,22.023,22.023,0,0,1-2.246-.513q-1.125-.317-2.173-0.684a10.537,10.537,0,0,1-1.734-.756Zm11.426-12.5a12.972,12.972,0,0,1,2.881,2.1,3.844,3.844,0,0,1,1.123,2.832q0,4.347-4,5.323v4.687a11.754,11.754,0,0,0,4-1.221,10.411,10.411,0,0,0,2.954-2.27,10.061,10.061,0,0,0,1.855-3,9.977,9.977,0,0,0-.22-7.666,9.737,9.737,0,0,0-2.246-2.9,14.011,14.011,0,0,0-3.051-2.027q-1.686-.83-3.3-1.562v5.713Zm15.283-12.647v38.379h5.957v-35.6l-0.635-2.783h-5.322ZM194.2,724.14a11.139,11.139,0,0,0-2.612-2.686,9.518,9.518,0,0,0-3.1-1.464,12.754,12.754,0,0,0-3.272-.44,11.676,11.676,0,0,0-2.832.342,9.955,9.955,0,0,0-2.49.976v5.176a6.1,6.1,0,0,1,1.88-1.44,5.205,5.205,0,0,1,2.319-.513,4.62,4.62,0,0,1,2.661.781,6.746,6.746,0,0,1,1.953,2.1A11.051,11.051,0,0,1,189.954,730a14.464,14.464,0,0,1,.44,3.614,13.553,13.553,0,0,1-.488,3.686,10.058,10.058,0,0,1-1.343,2.979,6.773,6.773,0,0,1-2.051,1.977,5.108,5.108,0,0,1-6.616-1.172v5.078a10.748,10.748,0,0,0,2.661,1.026,13.16,13.16,0,0,0,3.247.39,9.189,9.189,0,0,0,4.761-1.2,10.366,10.366,0,0,0,3.369-3.2,14.65,14.65,0,0,0,2-4.614,21.987,21.987,0,0,0,.659-5.4,19.925,19.925,0,0,0-.586-5.029A12.566,12.566,0,0,0,194.2,724.14Zm21.924,0.1a5.147,5.147,0,0,1,2.295,1.074,7.456,7.456,0,0,1,1.758,2.1,10.341,10.341,0,0,1,1.1,2.857,15.077,15.077,0,0,1,.366,3.393,11.565,11.565,0,0,1-1.538,6.1,6.174,6.174,0,0,1-3.98,3.076v4.688a12.469,12.469,0,0,0,4.785-1.319,11.587,11.587,0,0,0,3.711-2.954,13.736,13.736,0,0,0,2.369-4.3,16.081,16.081,0,0,0,.854-5.3,16.737,16.737,0,0,0-.83-5.322,14.235,14.235,0,0,0-2.319-4.37,11.347,11.347,0,0,0-3.687-3.027,11.8,11.8,0,0,0-4.883-1.294v4.59Zm-12.817,14.6a13.249,13.249,0,0,0,2.319,4.346,11.812,11.812,0,0,0,8.5,4.346v-4.688a4.577,4.577,0,0,1-2.27-1.025,6.978,6.978,0,0,1-1.685-2.1,11.367,11.367,0,0,1-1.05-2.881,15.393,15.393,0,0,1-.366-3.418,12.025,12.025,0,0,1,1.465-6.1,5.94,5.94,0,0,1,3.906-3.076V719.7a12.688,12.688,0,0,0-4.736,1.367,12.062,12.062,0,0,0-3.687,2.954,13.154,13.154,0,0,0-2.368,4.272,16.268,16.268,0,0,0-.83,5.274A17.029,17.029,0,0,0,203.309,738.837ZM243.372,723.8h4.395v-4h-4.395v-7.812h-5.908v7.812h-3.613v4h3.613v14.844q0,0.732.122,2.051a12.036,12.036,0,0,0,.586,2.71,8.057,8.057,0,0,0,1.392,2.539,4.106,4.106,0,0,0,2.588,1.44,11.614,11.614,0,0,0,1.294.147q0.756,0.048,1.489.048t1.489-.024q0.756-.026,1.294-0.073,0.635-.05,1.27-0.147V743.72a17.408,17.408,0,0,1-2.124-.122,4.49,4.49,0,0,1-1.807-.61,3.215,3.215,0,0,1-1.245-1.416,6.172,6.172,0,0,1-.44-2.588V723.8Zm18.457-4h-5.957v27.539h5.957V719.794Zm-0.488-11.279a3.388,3.388,0,0,0-2.49-1.025,3.328,3.328,0,0,0-2.441,1.025,3.507,3.507,0,0,0-.025,4.932,3.311,3.311,0,0,0,2.466,1.025,3.429,3.429,0,0,0,2.49-1,3.309,3.309,0,0,0,1.026-2.466A3.39,3.39,0,0,0,261.341,708.515Zm21.9,5.078a4.132,4.132,0,0,1,1.635.488l1.905-3.515a4.107,4.107,0,0,0-1.075-.537,11.553,11.553,0,0,0-1.489-.415q-0.805-.171-1.636-0.293a10.823,10.823,0,0,0-1.562-.122,8.666,8.666,0,0,0-4.126.878,7.015,7.015,0,0,0-2.588,2.32,10.124,10.124,0,0,0-1.392,3.369,26.428,26.428,0,0,0-.586,4.028h-3.71v4h3.613v23.535h5.957V723.8h4.346v-4h-4.248a18.476,18.476,0,0,1,.244-2.417,7.191,7.191,0,0,1,.634-2.026,3.742,3.742,0,0,1,1.1-1.367,2.674,2.674,0,0,1,1.636-.489Q282.288,713.5,283.241,713.593Zm30,6.2-9.814,27.539-1.855,4.395a14.145,14.145,0,0,1-.977,2.026,3.884,3.884,0,0,1-.928,1.074,2.243,2.243,0,0,1-1.1.44,11.789,11.789,0,0,1-1.392.073,4.607,4.607,0,0,1-1.2-.244,4.613,4.613,0,0,0-1.2-.244q-0.1.243-.268,0.854c-0.115.407-.22,0.838-0.318,1.294q-0.195.782-.39,1.66,0.147,0.049.586,0.22t1,0.342q0.561,0.171,1.147.293a5.15,5.15,0,0,0,1.026.122,23.1,23.1,0,0,0,2.514-.122,4.728,4.728,0,0,0,2.027-.708,7.5,7.5,0,0,0,1.806-1.685,18.76,18.76,0,0,0,1.88-3.027q1-1.929,2.2-4.81t2.759-7.055q1.563-4.175,3.662-9.717t4.785-12.72h-5.957Zm-8.837,20.166,0.683-1.66-7.031-18.506h-5.908l10.254,24.951Z"/>
  <path id="Polygone_1-3" data-name="Polygone 1" class="cls-4" d="M302.934,448.314l-149.171,85.1L3.709,446.784,2.826,275.046,152,189.942l150.054,86.634Z"/>
</svg>
